<?xml version="1.0" encoding="UTF-8" standalone="no"?>
<!DOCTYPE svg PUBLIC "-//W3C//DTD SVG 1.1//EN" "http://www.w3.org/Graphics/SVG/1.1/DTD/svg11.dtd">
<svg version="1.1" xmlns="http://www.w3.org/2000/svg" xmlns:xlink="http://www.w3.org/1999/xlink" preserveAspectRatio="xMidYMid meet" viewBox="131.0689655172414 176.47125559839697 278.1379310344828 278.1379310344828" width="274.14" height="274.14"><defs><path d="M406.21 314.54C406.21 390.19 344.79 451.61 269.14 451.61C193.49 451.61 132.07 390.19 132.07 314.54C132.07 238.89 193.49 177.47 269.14 177.47C344.79 177.47 406.21 238.89 406.21 314.54Z" id="bC4chm8Ip"></path><path d="M393.92 314C393.92 382.87 338.01 438.78 269.14 438.78C200.27 438.78 144.35 382.87 144.35 314C144.35 245.13 200.27 189.22 269.14 189.22C338.01 189.22 393.92 245.13 393.92 314Z" id="b5e9Tt5e19"></path><path d="M348.64 327.11L350.86 232.29L256.03 234.5L286.13 264.6L219.73 330.99L189.64 300.89L187.42 395.71L282.24 393.5L252.15 363.4L318.54 297.01L348.64 327.11Z" id="b15gcGd9wS"></path></defs><g><g><use xlink:href="#bC4chm8Ip" opacity="1" fill="#a97722" fill-opacity="1"></use></g><g><use xlink:href="#b5e9Tt5e19" opacity="1" fill="#c3a064" fill-opacity="1"></use></g><g><use xlink:href="#b15gcGd9wS" opacity="1" fill="#ddc9a7" fill-opacity="1"></use></g></g></svg>